<?xml version="1.0" encoding="UTF-8"?>
<svg width="314.806194px" height="375.499982px" viewBox="0 0 314.806194 375.499982" version="1.1" xmlns="http://www.w3.org/2000/svg" xmlns:xlink="http://www.w3.org/1999/xlink">
    <title>Illustration</title>
    <g id="Illustration" stroke="none" stroke-width="1" fill="none" fill-rule="evenodd">
        <path d="M121.43467,308.568512 C115.194844,302.079028 106.152458,298.357232 96.6260208,298.357232 L96.2585586,298.358222 C89.9837661,298.360644 83.8209283,296.682294 78.400375,293.494831 L77.8363086,293.163401 L78.2906152,292.69135 C80.7501422,290.125245 82.8038534,287.193087 84.3797873,283.997618 C82.1138831,286.127977 79.0268742,287.133638 75.9532982,286.742731 C72.7059066,286.352335 69.814307,284.484585 68.1046758,281.673129 C64.7751192,276.225258 60.8061939,268.495138 60.8061939,262.606274 C60.8166704,252.54186 65.0238175,242.945862 72.3987892,236.164954 C77.0689819,231.918404 79.7268484,225.868565 79.7082351,219.527184 L79.7063859,219.08097 C79.7057642,214.952923 80.2059997,210.840307 81.1959425,206.834788 L81.2964619,206.430313 L81.7091327,206.444846 C84.3703443,206.536171 87.0329643,206.311227 89.642014,205.774659 C87.1947243,205.471944 84.8006229,204.829808 82.5275742,203.866455 L82.0836151,203.685337 L82.2342852,203.226576 C92.6202381,196.741762 116.064304,200.099927 129.671941,168.703833 C140.705875,143.245891 179.637349,191.302879 179.637349,219.080981 C179.637349,221.91541 176.855707,225.661052 178.938054,227.534458 C201.448208,247.786221 185.916519,260.790636 181.019633,273.876192 C179.857779,276.980899 182.377011,280.389274 182.377011,283.748187 C182.377011,284.318129 182.362599,284.906454 182.334142,285.496771 L182.290783,286.404353 L181.540214,285.900745 C180.055459,284.919856 178.679147,283.781431 177.434823,282.504944 C180.049493,288.572737 179.796821,295.508494 176.747693,301.366457 C174.388693,305.85643 172.106441,309.070861 169.964496,310.919822 C155.720361,323.212177 134.44459,322.181343 121.434676,308.568501 L121.43467,308.568512 Z" id="Path" fill="#FFFFFF" fill-rule="nonzero"></path>
        <path d="M159.860881,375.499982 C160.182127,375.499982 160.454257,375.265597 160.499521,374.950821 C160.526963,374.760005 163.214761,355.574299 160.800811,330.075693 C158.571517,306.527122 151.41236,272.608874 129.96631,244.752387 C129.826549,244.570428 129.599265,244.476166 129.370191,244.505155 C129.141117,244.534144 128.945109,244.681973 128.856101,244.892882 C128.767093,245.103792 128.798629,245.345687 128.938814,245.527327 C150.199627,273.143274 157.301078,306.812652 159.514651,330.19493 C161.914565,355.545171 159.247843,374.581254 159.220617,374.770599 C159.194403,374.954118 159.249885,375.13987 159.372706,375.279783 C159.495527,375.419696 159.673615,375.499982 159.860881,375.499982 L159.860881,375.499982 Z" id="Path" fill="#000000" fill-rule="nonzero"></path>
        <path d="M142.166485,284.499982 C142.443459,284.500204 142.689058,284.320982 142.774773,284.056091 C142.860489,283.7912 142.766813,283.500928 142.542762,283.337156 C136.495621,279.220407 129.962998,275.875839 123.095227,273.38042 C112.365675,269.4297 96.0497961,265.848103 79.2528964,271.224684 C79.03483,271.293922 78.8701647,271.475067 78.8210958,271.699698 C78.7720268,271.92433 78.846033,272.158211 79.0151616,272.313004 C79.1842902,272.467797 79.4227638,272.519908 79.6405092,272.449655 C96.0932901,267.183561 112.113417,270.705939 122.655715,274.587814 C129.413077,277.040461 135.840924,280.328808 141.791263,284.377148 C141.900244,284.457029 142.031632,284.499982 142.166485,284.499982 L142.166485,284.499982 Z" id="Path" fill="#000000" fill-rule="nonzero"></path>
        <path d="M171.804511,211.185974 C171.82439,210.909628 171.666635,210.651733 171.413789,210.547233 C171.160944,210.442732 170.870554,210.515409 170.694565,210.727236 C166.241236,216.466097 162.508248,222.744678 159.581505,229.418491 C154.958125,239.841283 150.298977,255.864472 154.362243,273.009316 C154.414625,273.231661 154.579997,273.408698 154.795969,273.473634 C155.01194,273.538571 155.245639,273.481525 155.408897,273.324017 C155.572155,273.166509 155.640123,272.932513 155.587159,272.71031 C151.607462,255.916746 156.187708,240.184413 160.730527,229.943529 C163.607629,223.376815 167.278234,217.198752 171.657832,211.551581 C171.743643,211.448554 171.795004,211.320534 171.804511,211.185974 Z" id="Path" fill="#000000" fill-rule="nonzero"></path>
        <path d="M294.639322,375.499982 L243.831281,375.499982 L243.612998,375.104572 C242.963378,373.928795 242.336179,372.682884 241.750102,371.402658 C236.516499,360.220824 234.304496,347.43199 232.35264,336.148688 L230.882951,327.643679 C230.518861,325.536673 231.471163,323.419743 233.290789,322.291148 C235.110415,321.162554 237.433993,321.24767 239.165817,322.506361 C246.88727,328.113691 254.611714,333.71555 262.339149,339.311938 C265.265062,341.436699 268.606617,343.895688 271.806869,346.553124 C272.115609,345.05654 272.438551,343.555481 272.761493,342.075338 C273.217022,339.984754 274.897086,338.378516 277.009484,338.014016 C279.121882,337.649517 281.244809,338.599538 282.377239,340.416116 L288.321765,349.947691 C292.65756,356.908357 296.484274,363.767566 295.704578,371.165423 C295.708351,371.255429 295.70157,371.345567 295.684375,371.434003 C295.528384,372.649169 295.239091,373.843553 294.821703,374.99566 L294.639322,375.499982 Z" id="Path" fill="#FFFFFF" fill-rule="nonzero"></path>
        <path d="M271.481047,174.374517 L261.699058,137.981697 C260.827342,134.776251 257.558364,132.866613 254.356002,133.692105 L254.356002,133.692105 C252.74685,134.106886 251.37799,135.16814 250.570161,136.6272 C249.762333,138.086261 249.586532,139.8149 250.083952,141.408076 L261.398028,178.898201 L267.317533,201.969891 C265.551372,203.325421 264.817999,205.647016 265.48268,207.778372 C266.147362,209.909728 268.067969,211.395097 270.287915,211.494668 C272.507861,211.594239 274.552455,210.286722 275.403357,208.223344 C276.254258,206.159967 275.729519,203.781941 274.090493,202.273678 L271.481047,174.374517 Z" id="Path" fill="#A0616A" fill-rule="nonzero"></path>
        <path d="M188.722061,166.747417 L218.457432,143.511617 C221.072639,141.455521 221.579548,137.649315 219.596092,134.961809 L219.596092,134.961809 C218.599446,133.611369 217.100026,132.736134 215.44916,132.541181 C213.798294,132.346228 212.141066,132.84869 210.86578,133.930835 L180.706755,159.028603 L161.747869,173.494572 C159.825895,172.35999 157.410112,172.567991 155.703739,174.014978 C153.997365,175.461964 153.365273,177.838526 154.122287,179.960982 C154.879301,182.083438 156.863548,183.497942 159.086744,183.499982 C161.309939,183.502017 163.296697,182.091152 164.057484,179.970087 L188.722061,166.747417 Z" id="Path" fill="#A0616A" fill-rule="nonzero"></path>
        <path d="M213.111944,172.131559 L211.806194,201.499982 L252.806194,192.526298 C249.316422,180.725446 246.943519,178.712607 249.565844,170.499982 L213.111944,172.131559 Z" id="Path" fill="#A0616A" fill-rule="nonzero"></path>
        <path d="M237.791558,118.499982 L224.115659,118.499982 L218.242601,128.588838 L215.44412,128.433743 C212.6779,128.280435 209.970724,129.276568 207.958464,131.188166 C205.946204,133.099764 204.806194,135.758368 204.806194,138.539514 L208.254313,143.904487 C208.254313,143.904487 202.087679,154.692962 210.970539,160.000499 C210.970539,160.000499 209.386216,170.000492 210.970539,169.893001 C212.554863,169.785511 216.204145,167.750307 212.554863,169.785516 C208.905581,171.820725 209.177867,172.094037 209.649942,172.567942 L210.970539,189.269176 C217.47388,188.77159 222.201536,188.77159 225.153506,189.269176 C230.728671,190.20893 238.923325,188.278941 249.737467,183.47921 C249.737467,183.47921 249.616504,172.042406 249.737467,170.710427 C249.85843,169.378448 249.047479,172.63479 249.858425,169.378448 C250.66937,166.122106 251.885788,167.343245 250.66937,166.122123 C249.452952,164.901001 258.55103,149.772616 254.812939,143.904443 L260.806194,138.036277 C260.806194,132.407316 251.800387,127.844136 246.19311,127.844136 L245.474832,127.844136 L237.791558,118.499982 Z" id="Path" fill="#FFFFFF" fill-rule="nonzero"></path>
        <polygon id="Path" fill="#A0616A" fill-rule="nonzero" points="204.805662 364.499982 199.384865 364.499982 196.806194 342.499982 204.806194 342.500542"></polygon>
        <path d="M188.822203,372.115894 C188.827737,373.42837 189.860275,374.491668 191.137321,374.499982 L201.448887,374.499982 L201.768371,373.819525 L203.226907,370.726402 L203.791781,373.819525 L203.91681,374.499982 L207.806194,374.499982 L207.750634,373.814732 L206.713462,361.032977 L205.356806,360.947298 L199.494931,360.590398 L198.054908,360.499982 L198.054908,364.316429 C196.962176,365.510883 188.386957,370.026835 188.822203,372.115894 Z" id="Path" fill="#000000" fill-rule="nonzero"></path>
        <polygon id="Path" fill="#A0616A" fill-rule="nonzero" points="287.806194 349.498192 283.00476 352.499982 268.806194 335.929665 275.893144 331.499982"></polygon>
        <path d="M278.090212,365.428657 C278.805799,366.509943 280.275,366.824402 281.384393,366.133725 L290.305889,360.501393 L290.213778,359.7647 L289.800546,356.412629 L291.964417,358.659479 L292.441121,359.153371 L295.806194,357.028926 L295.387014,356.493157 L287.567415,346.499982 L286.347256,347.170248 L281.082313,350.077238 L279.787445,350.78912 L281.85433,353.942092 C281.555802,355.525724 276.582265,363.940524 278.090212,365.428657 Z" id="Path" fill="#000000" fill-rule="nonzero"></path>
        <path d="M314.157397,375.385683 L141.45499,375.499982 C141.096144,375.498758 140.806194,375.300846 140.806194,375.057131 C140.806194,374.813416 141.096144,374.615504 141.45499,374.61428 L314.157397,374.499982 C314.516243,374.501205 314.806194,374.699117 314.806194,374.942832 C314.806194,375.186548 314.516243,375.38446 314.157397,375.385683 L314.157397,375.385683 Z" id="Path" fill="#000000" fill-rule="nonzero"></path>
        <path d="M252.635957,189.499982 C252.635957,189.499982 226.251389,203.511352 212.296115,193.951961 C212.296115,193.951961 209.243412,208.795548 208.020095,210.023676 C206.796778,211.251803 204.847793,211.786918 206.230058,213.156896 C207.612323,214.526874 208.381757,216.377154 205.75429,218.727072 C203.126823,221.07699 200.506806,220.331376 203.040134,222.751089 C205.573462,225.170802 195.379134,284.531144 195.379134,284.531144 C195.379134,284.531144 197.010228,339.733657 195.379134,341.403213 C193.74804,343.072768 191.567907,343.446568 193.677404,345.511259 C195.786901,347.57595 195.786906,345.974599 195.786906,348.822186 L195.786906,351.669768 L196.75208,354.499982 L209.991999,354.499982 C209.991999,354.499982 213.187203,350.773643 209.991999,347.537269 C206.796795,344.300895 210.964382,343.415251 211.938896,340.378325 C212.913411,337.341398 214.544489,340.61648 212.913395,337.341403 C211.2823,334.066326 210.498862,334.689482 210.482809,332.535697 C210.466756,330.381912 234.52535,246.049266 234.52535,246.049266 L237.439258,292.726292 L272.489315,343.845419 L282.806194,336.077251 C282.806194,336.077251 275.294807,325.461638 277.051283,324.002154 C278.80776,322.54267 271.874402,320.712354 274.06076,319.066115 C276.247119,317.419876 270.984008,315.760945 272.967581,313.578652 C274.951155,311.396359 270.234633,305.896204 267.501685,305.896204 C264.768737,305.896204 260.933269,296.727525 260.933269,296.727525 L266.658954,224.297237 L252.635957,189.499982 Z" id="Path" fill="#000000" fill-rule="nonzero"></path>
        <path d="M223.993473,87.8231696 C223.807983,88.0723969 222.328773,87.9381976 220.550134,87.6726274 C217.033473,87.1475662 216.554216,87.7715014 213.925203,90.2167524 C210.116895,93.7588593 212.282204,115.363353 210.410798,120.04446 L209.806194,120.499982 C211.00538,120.265805 212.183152,119.928792 213.327029,119.492514 C213.973163,117.407834 214.621085,115.316442 215.273365,113.233468 C215.889082,114.854152 216.276178,116.556162 216.423016,118.288343 C217.328283,117.923443 218.228312,117.03102 222.010926,115.834185 C223.915656,114.512929 237.695696,113.184423 239.467297,112.60312 C243.963281,96.9611891 236.717829,90.6355488 223.993473,87.8231696 Z" id="Path" fill="#000000" fill-rule="nonzero"></path>
        <circle id="Oval" fill="#A0616A" fill-rule="nonzero" cx="229.306194" cy="98.9999817" r="13.5"></circle>
        <path d="M237.843652,87.0271089 C237.109619,86.9202214 236.403075,86.6757317 235.76211,86.3068195 C235.113834,85.9203491 234.745858,85.2025986 234.814327,84.4581349 C234.974802,83.5446953 236.021047,82.9993055 236.958623,83.0548695 C237.89206,83.1876807 238.778944,83.5419365 239.543246,84.0872679 C239.370457,82.2703917 237.960404,80.8062159 236.130781,80.5438204 C237.363931,80.478245 238.645769,80.4203997 239.786009,80.888505 C240.92625,81.3566103 241.876404,82.515687 241.67075,83.7175893 C243.587737,83.4738251 245.478165,84.7921714 246.269613,86.532662 C247.06106,88.2731526 246.904133,90.3171044 246.271827,92.1199021 C246.145675,92.6785078 245.780028,93.155536 245.269717,93.4272662 C244.624442,93.6689402 243.930306,93.2637045 243.371216,92.8642729 C240.451202,90.7774196 237.793458,88.3546462 235.454163,85.6471662" id="Path" fill="#000000" fill-rule="nonzero"></path>
        <path d="M242.832216,113.193523 C242.261769,113.46051 242.558815,114.453818 242.115551,114.898638 C241.923194,115.086998 241.691134,115.230499 241.436157,115.318764 C241.369519,114.489713 241.175315,113.675736 240.860325,112.905254 C240.802347,112.76521 240.707065,112.608704 240.557921,112.62107 C240.383938,112.641657 240.338377,112.868177 240.334229,113.037028 C240.299131,113.874719 240.112492,114.699266 239.783256,115.471147 C239.779108,115.479395 239.77496,115.491739 239.77084,115.499982 C239.642397,115.495858 239.509855,115.491739 239.385554,115.487615 C238.424491,115.45056 236.295159,112.995882 235.822915,113.827825 C237.488221,110.891272 239.518123,106.476073 239.828818,103.11941 C239.936487,102.416661 239.884113,101.698845 239.675558,101.018902 C239.453104,100.328116 238.846333,99.8294253 238.122082,99.7421387 C237.767831,99.7260877 237.424874,99.8681274 237.186853,100.129474 C236.948833,100.39082 236.840611,100.744176 236.891738,101.093056 L236.651459,101.060125 C234.422731,99.2561673 236.344907,96.1218509 233.751628,94.8821922 C232.873397,94.4620662 227.496291,95.8665346 226.547616,95.6194167 C226.527325,94.6258741 226.323722,93.644479 225.946934,92.7240421 C225.888957,92.5839927 225.793675,92.4274861 225.64453,92.4398525 C225.470548,92.4604393 225.424981,92.6869595 225.420838,92.8558104 C225.385736,93.6935011 225.199095,94.5180486 224.86986,95.2899297 C223.555616,95.1045766 222.217682,95.1745097 220.930232,95.4958521 C219.795158,95.7923805 218.71809,96.3031123 217.578874,96.57493 C216.440767,96.9216647 215.209306,96.7876102 214.173631,96.2042419 C212.727864,95.2404973 212.475169,93.1070578 213.195976,91.533722 C213.717633,90.5241699 214.422706,89.6193156 215.275576,88.8648676 C215.925945,88.2388192 216.601197,87.637498 217.276442,87.036199 C217.881272,86.49666 218.486095,85.9571138 219.09091,85.4175601 C219.852286,84.7051196 220.663508,84.0472421 221.518475,83.4488753 C224.277358,81.6509521 227.65994,81.063876 230.868355,81.8261235 C232.773973,82.2791584 235.321663,81.6408044 237.065715,82.526293 C237.977091,82.9916888 239.994543,84.7750711 240.794068,85.4093288 C242.840517,87.0279676 241.455609,85.7090646 243.693894,86.6449132 C249.031041,88.8764169 246.67096,111.396847 242.832216,113.193523 Z" id="Path" fill="#000000" fill-rule="nonzero"></path>
        <ellipse id="Oval" fill="#FFFFFF" fill-rule="nonzero" cx="95.8061939" cy="126.999982" rx="82" ry="82.5"></ellipse>
        <path d="M95.8061939,210.499982 C50.0399034,210.499982 12.8061939,173.041951 12.8061939,126.999982 C12.8061939,80.9580127 50.0399253,43.4999817 95.8061939,43.4999817 C141.572463,43.4999817 178.806194,80.9580127 178.806194,126.999982 C178.806194,173.041951 141.572474,210.499982 95.8061939,210.499982 Z M95.8061939,45.1504788 C50.9445871,45.1504788 14.4468078,81.8681298 14.4468078,126.999982 C14.4468078,172.131834 50.9445761,208.849485 95.8061939,208.849485 C140.667812,208.849485 177.165569,172.131839 177.165569,126.999982 C177.165569,81.8681243 140.667784,45.1504788 95.8061939,45.1504788 Z" id="Shape" fill="#000000" fill-rule="nonzero"></path>
        <path d="M84.5361697,170.499982 C81.6434256,170.499982 78.9195935,169.137643 77.1845176,166.822991 L54.6441393,136.768282 C52.6742027,134.141486 52.2552679,130.663265 53.5451434,127.64383 C54.835019,124.624396 57.6377422,122.522472 60.8975543,122.129834 C64.1573664,121.737196 67.3790244,123.113494 69.3489609,125.74029 L84.0956451,145.401287 L121.970603,88.5888922 C124.78756,84.369043 130.491083,83.2301526 134.712616,86.0445426 C138.934148,88.8589327 140.07654,94.5618235 137.264789,98.7851428 L92.1840101,166.40712 C90.5292371,168.888731 87.7735002,170.413426 84.7919689,170.496991 C84.7067043,170.498486 84.6214342,170.499982 84.5361697,170.499982 Z" id="Path" fill="#000000" fill-rule="nonzero"></path>
        <ellipse id="Oval" fill="#FFFFFF" fill-rule="nonzero" transform="translate(176.901469, 49.513460) rotate(-81.721740) translate(-176.901469, -49.513460) " cx="176.901469" cy="49.5134596" rx="2.88469332" ry="4.13532209"></ellipse>
        <ellipse id="Oval" fill="#000000" fill-rule="nonzero" transform="translate(203.808261, 46.880462) rotate(-81.721777) translate(-203.808261, -46.880462) " cx="203.808261" cy="46.8804616" rx="2.88468613" ry="4.13531965"></ellipse>
        <ellipse id="Oval" fill="#A0616A" fill-rule="nonzero" transform="translate(169.533221, 27.667396) rotate(-81.721777) translate(-169.533221, -27.667396) " cx="169.533221" cy="27.6673958" rx="2.88469162" ry="4.13531965"></ellipse>
        <ellipse id="Oval" fill="#FFFFFF" fill-rule="nonzero" transform="translate(160.115724, 19.302092) rotate(-89.566750) translate(-160.115724, -19.302092) " cx="160.115724" cy="19.3020919" rx="2.62089807" ry="1.81799388"></ellipse>
        <ellipse id="Oval" fill="#000000" fill-rule="nonzero" transform="translate(156.150798, 2.634570) rotate(-89.566750) translate(-156.150798, -2.634570) " cx="156.150798" cy="2.63457002" rx="2.62089807" ry="1.81799388"></ellipse>
        <ellipse id="Oval" fill="#FFFFFF" fill-rule="nonzero" transform="translate(186.983396, 31.968240) rotate(-89.566750) translate(-186.983396, -31.968240) " cx="186.983396" cy="31.9682398" rx="2.62089807" ry="1.81799388"></ellipse>
        <ellipse id="Oval" fill="#A0616A" fill-rule="nonzero" transform="translate(173.980714, 38.479040) rotate(-89.566750) translate(-173.980714, -38.479040) " cx="173.980714" cy="38.4790395" rx="2.62089807" ry="1.81799388"></ellipse>
        <ellipse id="Oval" fill="#000000" fill-rule="nonzero" transform="translate(192.080904, 50.512677) rotate(-89.566750) translate(-192.080904, -50.512677) " cx="192.080904" cy="50.5126767" rx="2.62089807" ry="1.81799388"></ellipse>
        <ellipse id="Oval" fill="#FFFFFF" fill-rule="nonzero" transform="translate(22.588424, 244.881348) rotate(-81.721740) translate(-22.588424, -244.881348) " cx="22.5884243" cy="244.881348" rx="2.88469332" ry="4.13532209"></ellipse>
        <ellipse id="Oval" fill="#000000" fill-rule="nonzero" transform="translate(49.495542, 242.248242) rotate(-81.721740) translate(-49.495542, -242.248242) " cx="49.4955417" cy="242.248242" rx="2.88468783" ry="4.13532209"></ellipse>
        <ellipse id="Oval" fill="#A0616A" fill-rule="nonzero" transform="translate(15.220468, 223.035179) rotate(-81.721740) translate(-15.220468, -223.035179) " cx="15.2204678" cy="223.035179" rx="2.88469332" ry="4.13532209"></ellipse>
        <ellipse id="Oval" fill="#FFFFFF" fill-rule="nonzero" transform="translate(5.802686, 214.669979) rotate(-89.566750) translate(-5.802686, -214.669979) " cx="5.80268602" cy="214.669979" rx="2.62089807" ry="1.81799388"></ellipse>
        <ellipse id="Oval" fill="#000000" fill-rule="nonzero" transform="translate(1.837760, 198.002451) rotate(-89.566750) translate(-1.837760, -198.002451) " cx="1.83776" cy="198.002451" rx="2.62089807" ry="1.81799388"></ellipse>
        <ellipse id="Oval" fill="#FFFFFF" fill-rule="nonzero" transform="translate(32.670357, 227.336126) rotate(-89.566750) translate(-32.670357, -227.336126) " cx="32.6703574" cy="227.336126" rx="2.62089807" ry="1.81799388"></ellipse>
        <ellipse id="Oval" fill="#A0616A" fill-rule="nonzero" transform="translate(19.667675, 233.846921) rotate(-89.566750) translate(-19.667675, -233.846921) " cx="19.6676755" cy="233.846921" rx="2.62089807" ry="1.81799388"></ellipse>
        <ellipse id="Oval" fill="#000000" fill-rule="nonzero" transform="translate(37.767866, 245.880563) rotate(-89.566750) translate(-37.767866, -245.880563) " cx="37.7678659" cy="245.880563" rx="2.62089807" ry="1.81799388"></ellipse>
    </g>
</svg>