<?xml version="1.0" encoding="UTF-8"?>
<svg width="125.114621px" height="56.6204592px" viewBox="0 0 125.114621 56.6204592" version="1.1" xmlns="http://www.w3.org/2000/svg" xmlns:xlink="http://www.w3.org/1999/xlink">
    <title>Tick White</title>
    <g id="Tick-White" stroke="none" stroke-width="1" fill="none" fill-rule="evenodd">
        <polygon id="Path" fill="#FFFFFF" fill-rule="nonzero" points="15.0817871 55.9117647 22.7631378 55.9117647 22.7631378 13.2181307 37.8449249 13.2181307 37.8449249 6.59047564 0 6.59047564 0 13.2181307 15.0817871 13.2181307"></polygon>
        <polygon id="Shape" fill="#FFFFFF" fill-rule="nonzero" points="41.9566512 55.9117647 49.3832564 55.9117647 49.3832564 19.9638124 41.9566512 19.9638124"></polygon>
        <path d="M47.1383202,14 C47.665452,14 48.0840566,13.7622739 48.3941342,13.2868217 L55.4794055,2.12403101 C55.5724287,1.97932817 55.6577001,1.82170543 55.7352194,1.65116279 C55.8127388,1.48062016 55.8514985,1.30749354 55.8514985,1.13178295 C55.8514985,0.790697674 55.7222995,0.516795866 55.4639016,0.310077519 C55.2055037,0.103359173 54.916098,5.68434189e-14 54.5956845,5.68434189e-14 C54.161576,5.68434189e-14 53.7998189,0.23255814 53.5104132,0.697674419 L47.0763047,11.0232558 L44.0220411,7.06976744 C43.8359946,6.82170543 43.6525321,6.65374677 43.4716535,6.56589147 C43.290775,6.47803618 43.0918086,6.43410853 42.8747543,6.43410853 C42.544005,6.43410853 42.2623512,6.55555556 42.0297931,6.79844961 C41.7972349,7.04134367 41.6809559,7.33333333 41.6809559,7.6744186 C41.6809559,7.99483204 41.7998189,8.31524548 42.037545,8.63565891 L45.8204908,13.2868217 C46.0168732,13.5348837 46.2210075,13.7157623 46.4328939,13.8294574 C46.6447802,13.9431525 46.8799223,14 47.1383202,14 Z" id="Path" fill="#FFFFFF" fill-rule="nonzero"></path>
        <path d="M72.5647116,56.6204592 C75.4667807,56.6204592 78.0291001,56.0582745 80.2516699,54.9339052 C82.4742397,53.8095359 84.2625316,52.2852465 85.6165457,50.3610369 C86.9705598,48.4368273 87.7776988,46.2714907 88.0379629,43.865027 L88.066268,43.6321779 L80.9552908,43.6321779 L80.8933401,43.9178987 C80.4547008,45.8543917 79.5320272,47.4216727 78.1253195,48.619742 C76.7186117,49.8178113 74.8755789,50.4168459 72.596221,50.4168459 C70.696044,50.4168459 69.0312974,49.9240887 67.6019812,48.9385744 C66.172665,47.9530601 65.061113,46.5327338 64.2673254,44.6775957 C63.4735378,42.8224576 63.0766439,40.5852012 63.0766439,37.9658266 L63.0766439,37.9316469 C63.0766439,35.3724428 63.4698884,33.1616223 64.2563772,31.2991854 C65.0428661,29.4367484 66.1461401,27.9977302 67.5661993,26.9821306 C68.9862585,25.966531 70.6444184,25.4587313 72.540679,25.4587313 C74.9563996,25.4587313 76.8521261,26.1006685 78.2278585,27.384543 C79.603591,28.6684175 80.4828278,30.192796 80.8655691,31.9576784 L80.9275198,32.2433992 L88.0101919,32.2433992 L87.9824209,31.9827791 C87.7776988,29.729056 87.0365159,27.6364402 85.758872,25.7049318 C84.4812282,23.7734234 82.7233775,22.2155774 80.4853201,21.0313936 C78.2472626,19.8472099 75.5823151,19.255118 72.4904776,19.255118 C69.0714407,19.255118 66.0885509,20.0133018 63.5418081,21.5296694 C60.9950654,23.046037 59.0182511,25.1984672 57.6113653,27.98696 C56.2044795,30.7754529 55.5010366,34.0695202 55.5010366,37.8691622 L55.5010366,37.9033419 C55.5010366,41.7261263 56.1952225,45.0384406 57.5835943,47.8402849 C58.9719661,50.6421292 60.945131,52.8059526 63.503089,54.3317552 C66.0610469,55.8575579 69.0815878,56.6204592 72.5647116,56.6204592 Z" id="Path" fill="#FFFFFF" fill-rule="nonzero"></path>
        <path d="M93.8492858,55.9117647 L101.275357,55.9117647 L101.275357,6.59047564 L93.8492858,6.59047564 L93.8492858,55.9117647 Z M116.524838,55.9117647 L125.114621,55.9117647 L108.627728,33.919272 L103.80412,39.2192598 L116.524838,55.9117647 Z M99.9861419,44.2730471 L106.573743,37.654471 L107.691525,37.654471 L124.560803,19.9638124 L115.844983,19.9638124 L101.437176,35.2763124 L99.9861419,35.2763124 L99.9861419,44.2730471 Z" id="Shape" fill="#FFFFFF" fill-rule="nonzero"></path>
    </g>
</svg>